<svg xmlns="http://www.w3.org/2000/svg" version="1.1" xmlns:xlink="http://www.w3.org/1999/xlink" xmlns:svgjs="http://svgjs.dev/svgjs" width="1500" height="227" viewBox="0 0 1500 227"><g transform="matrix(1,0,0,1,-0.9090909090909918,-0.11953381316142497)"><svg viewBox="0 0 396 60" data-background-color="#040046" preserveAspectRatio="xMidYMid meet" height="227" width="1500" xmlns="http://www.w3.org/2000/svg" xmlns:xlink="http://www.w3.org/1999/xlink"><g id="tight-bounds" transform="matrix(1,0,0,1,0.2400000000000091,0.031594840483194275)"><svg viewBox="0 0 395.52 59.93681031903358" height="59.93681031903358" width="395.52"><g><svg viewBox="0 0 485.97151098946165 73.64376586425341" height="59.93681031903358" width="395.52"><g transform="matrix(1,0,0,1,0,1.296670262443449)"><svg viewBox="0 0 395.52 71.05042533936651" height="71.05042533936651" width="395.52"><g id="textblocktransform"><svg viewBox="0 0 395.52 71.05042533936651" height="71.05042533936651" width="395.52" id="textblock"><g><svg viewBox="0 0 395.52 71.05042533936651" height="71.05042533936651" width="395.52"><g transform="matrix(1,0,0,1,0,0)"><svg width="395.52" viewBox="1.88 -38.35 269.75 48.46" height="71.05042533936651" data-palette-color="url(#169e72fd-a59a-4c0a-959f-88839874e3f6)"></svg></g></svg></g></svg></g></svg></g><g transform="matrix(1,0,0,1,412.2933002124163,0)"><svg viewBox="0 0 73.6782107770454 73.64376586425341" height="73.64376586425341" width="73.6782107770454"><g><svg xmlns="http://www.w3.org/2000/svg" xmlns:xlink="http://www.w3.org/1999/xlink" version="1.1" x="0" y="0" viewBox="0.7607695154586737 0.7749999999999999 30.439230484541326 30.425" enable-background="new 0 0 32 32" xml:space="preserve" height="73.64376586425341" width="73.6782107770454" class="icon-icon-0" data-fill-palette-color="accent" id="icon-0"></svg></g></svg></g></svg></g><defs></defs><mask id="d336ba58-a726-4d88-b03b-11f1d1dcb996"><g id="SvgjsG1766"><svg viewBox="0 0 395.52 59.93681031903358" height="59.93681031903358" width="395.52"><g><svg viewBox="0 0 485.97151098946165 73.64376586425341" height="59.93681031903358" width="395.52"><g transform="matrix(1,0,0,1,0,1.296670262443449)"><svg viewBox="0 0 395.52 71.05042533936651" height="71.05042533936651" width="395.52"><g id="SvgjsG1765"><svg viewBox="0 0 395.52 71.05042533936651" height="71.05042533936651" width="395.52" id="SvgjsSvg1764"><g><svg viewBox="0 0 395.52 71.05042533936651" height="71.05042533936651" width="395.52"><g transform="matrix(1,0,0,1,0,0)"><svg width="395.52" viewBox="1.88 -38.35 269.75 48.46" height="71.05042533936651" data-palette-color="url(#169e72fd-a59a-4c0a-959f-88839874e3f6)"><path d="M19.6 0.02L15.23 0.02 1.88-35.55 6.69-35.55Q8.06-31.79 9.41-28.04 10.77-24.29 12.13-20.54 13.5-16.8 14.83-13.01 16.16-9.23 17.46-5.42L17.46-5.42Q20.07-13.04 22.81-20.53 25.56-28.03 28.27-35.55L28.27-35.55 33.33-35.55 19.6 0.02ZM44.11 0L39.67 0 39.67-26.42 44.11-26.42 44.11 0ZM41.89-32.47L41.89-32.47Q40.4-32.47 39.6-33.25 38.79-34.03 38.79-35.45L38.79-35.45Q38.79-36.82 39.6-37.59 40.4-38.35 41.89-38.35L41.89-38.35Q43.38-38.35 44.19-37.59 44.99-36.82 44.99-35.45L44.99-35.45Q44.99-34.03 44.19-33.25 43.38-32.47 41.89-32.47ZM60.4 0.49L60.4 0.49Q57.22 0.49 54.5-0.57 51.78-1.64 50.14-3.69L50.14-3.69 52.46-5.93 52.8-5.93Q54.39-4.1 56.46-3.42 58.54-2.73 60.4-2.73L60.4-2.73Q62.93-2.73 64.33-3.91 65.72-5.08 65.72-7.5L65.72-7.5Q65.72-8.35 65.4-9.05 65.08-9.74 64.11-10.36 63.13-10.99 61.1-11.62L61.1-11.62 58.12-12.55Q54.93-13.55 53.39-14.65 51.85-15.75 51.37-17.04 50.9-18.33 50.9-19.9L50.9-19.9Q50.9-23.19 53.47-25.1 56.05-27 60.47-27L60.47-27Q62.62-27 64.3-26.5 65.99-26 67.23-25.13 68.48-24.27 69.26-23.14L69.26-23.14 66.84-21.17 66.6-21.17Q65.69-22.24 64.16-22.95 62.62-23.66 60.49-23.66L60.49-23.66Q58.64-23.66 57.49-23.21 56.34-22.75 55.81-21.9 55.27-21.04 55.27-19.87L55.27-19.87Q55.27-18.53 56.06-17.72 56.86-16.92 59.57-16.06L59.57-16.06 62.5-15.14Q65.67-14.11 67.22-12.94 68.77-11.77 69.27-10.46 69.77-9.16 69.77-7.67L69.77-7.67Q69.77-4.79 68.5-2.99 67.23-1.2 65.11-0.35 62.98 0.49 60.4 0.49ZM80.97 0L76.53 0 76.53-26.42 80.97-26.42 80.97 0ZM78.75-32.47L78.75-32.47Q77.26-32.47 76.46-33.25 75.65-34.03 75.65-35.45L75.65-35.45Q75.65-36.82 76.46-37.59 77.26-38.35 78.75-38.35L78.75-38.35Q80.24-38.35 81.05-37.59 81.85-36.82 81.85-35.45L81.85-35.45Q81.85-34.03 81.05-33.25 80.24-32.47 78.75-32.47ZM99.77 0.49L99.77 0.49Q95.94 0.49 93.26-1.23 90.59-2.95 89.2-6.04 87.81-9.13 87.81-13.23L87.81-13.23Q87.81-17.43 89.17-20.52 90.54-23.61 93.22-25.31 95.89-27 99.77-27L99.77-27Q103.65-27 106.31-25.31 108.97-23.61 110.34-20.52 111.71-17.43 111.71-13.23L111.71-13.23Q111.71-9.13 110.32-6.04 108.93-2.95 106.26-1.23 103.6 0.49 99.77 0.49ZM99.77-2.81L99.77-2.81Q102.36-2.81 103.98-4.16 105.61-5.52 106.37-7.86 107.14-10.21 107.14-13.21L107.14-13.21Q107.14-16.28 106.37-18.64 105.61-21 103.97-22.34 102.33-23.68 99.77-23.68L99.77-23.68Q95.91-23.68 94.14-20.75 92.37-17.82 92.37-13.21L92.37-13.21Q92.37-10.21 93.14-7.86 93.91-5.52 95.55-4.16 97.18-2.81 99.77-2.81ZM123.03 0L118.59 0 118.59-26.42 122.28-26.42 122.74-21.26Q123.96-24.19 126.2-25.6 128.43-27 131.65-27L131.65-27Q136.12-27 138.22-24.13 140.32-21.26 140.32-15.92L140.32-15.92 140.32 0 135.9 0 135.9-16.24Q135.9-18.48 135.44-20.15 134.97-21.83 133.85-22.75 132.73-23.68 130.72-23.68L130.72-23.68Q128.67-23.68 127.22-23 125.77-22.31 124.84-21.11 123.91-19.9 123.47-18.31 123.03-16.72 123.03-14.94L123.03-14.94 123.03 0ZM155.36 0.49L155.36 0.49Q151.57 0.49 149.2-1.42 146.84-3.32 146.84-7.18L146.84-7.18Q146.84-8.94 147.46-10.3 148.08-11.67 149.35-12.61 150.62-13.55 152.62-14.04 154.62-14.53 157.36-14.53L157.36-14.53 163.32-14.53 163.32-17.58Q163.32-20.78 161.87-22.2 160.43-23.63 157.53-23.63L157.53-23.63Q155.65-23.63 153.29-23.03 150.94-22.44 149.06-21.14L149.06-21.14 147.76-24.51Q149.11-25.37 150.73-25.92 152.35-26.46 154.12-26.73 155.89-27 157.65-27L157.65-27Q160.63-27 162.9-26.05 165.17-25.1 166.45-22.95 167.73-20.8 167.73-17.21L167.73-17.21 167.73 0 164.02 0 163.71-3.25Q162.66-2 161.41-1.17 160.17-0.34 158.66 0.07 157.16 0.49 155.36 0.49ZM156.04-2.66L156.04-2.66Q158.38-2.66 160.24-3.64 162.09-4.61 163.32-6.18L163.32-6.18 163.32-11.72 158.16-11.72Q155.48-11.72 153.92-11.21 152.35-10.69 151.71-9.68 151.06-8.67 151.06-7.13L151.06-7.13Q151.06-4.64 152.51-3.65 153.96-2.66 156.04-2.66ZM180.04 0L175.62 0 175.62-26.42 179.21-26.42 179.65-20.92Q181.01-24.19 183.01-25.46 185.02-26.73 187.26-26.73L187.26-26.73Q187.8-26.73 188.26-26.71 188.73-26.68 189.19-26.61L189.19-26.61 188.85-23.1Q188.61-23.1 188.36-23.11 188.12-23.12 187.85-23.12L187.85-23.12Q185.21-23.12 183.48-22.02 181.75-20.92 180.89-19.08 180.04-17.24 180.04-14.99L180.04-14.99 180.04 0ZM216.97-26.42L202.37 10.11 198.56 9.13 202.47-1.07 191.48-26.42 196.12-26.42 204.67-5.93 212.7-26.42 216.97-26.42ZM224.37 0L219.68 0 232.99-35.55 237.82-35.55 251.25 0 246.54 0 242.43-11.06 228.44-11.06 224.37 0ZM235.43-30.96L229.54-14.6 241.33-14.6 235.43-30.96ZM271.63 0.02L257.45 0.02 257.45-2.88 262.18-2.88 262.18-32.67 257.45-32.67 257.45-35.55 271.63-35.55 271.63-32.67 266.94-32.67 266.94-2.88 271.63-2.88 271.63 0.02Z" opacity="1" transform="matrix(1,0,0,1,0,0)" fill="white" class="wordmark-text-0" id="SvgjsPath1763"></path></svg></g></svg></g></svg></g></svg></g><g transform="matrix(1,0,0,1,412.2933002124163,0)"><svg viewBox="0 0 73.6782107770454 73.64376586425341" height="73.64376586425341" width="73.6782107770454"><g><svg xmlns="http://www.w3.org/2000/svg" xmlns:xlink="http://www.w3.org/1999/xlink" version="1.1" x="0" y="0" viewBox="0.7607695154586737 0.7749999999999999 30.439230484541326 30.425" enable-background="new 0 0 32 32" xml:space="preserve" height="73.64376586425341" width="73.6782107770454" class="icon-icon-0" data-fill-palette-color="accent" id="SvgjsSvg1762"><g fill="black"><g fill="black"><path fill="black" d="M1.5 31.2C1.3 31.2 1.1 31.1 1 31 0.8 30.8 0.7 30.6 0.8 30.3L4.5 11.2C4.6 10.9 4.8 10.6 5.1 10.6L14.7 9.3C14.9 9.3 15.2 9.3 15.3 9.5L22.5 16.7C22.7 16.9 22.7 17.1 22.7 17.3L21.4 26.9C21.4 27.2 21.1 27.5 20.8 27.5L1.6 31.2zM5.8 12.1L2.4 29.6 19.9 26.2 21.1 17.5 14.4 10.8z"></path></g><g fill="black"><rect x="5.2" y="19.8" transform="matrix(-0.7071 -0.7071 0.7071 -0.7071 -8.3465 48.7211)" fill="black" width="1.5" height="12.6"></rect></g><g fill="black"><path fill="black" d="M12 23.1C11.2 23.1 10.4 22.8 9.8 22.2S8.9 20.9 8.9 20C8.9 19.2 9.2 18.4 9.8 17.8 11 16.6 13 16.6 14.1 17.8 15.3 19 15.3 20.9 14.1 22.1 13.6 22.8 12.8 23.1 12 23.1M12 18.4C11.6 18.4 11.2 18.6 10.9 18.9S10.4 19.6 10.4 20 10.6 20.8 10.9 21.1C11.5 21.7 12.5 21.7 13.1 21.1S13.7 19.5 13.1 18.9C12.8 18.6 12.4 18.4 12 18.4"></path></g><g fill="black"><path fill="black" d="M23.8 18.7C22.9 18.7 22 18.3 21.4 17.7L14.3 10.6C13 9.3 13 7.1 14.3 5.8L19.1 1C19.4 0.7 19.9 0.7 20.2 1L31 11.8C31.1 11.9 31.2 12.1 31.2 12.3S31.1 12.7 31 12.8L26.1 17.7C25.5 18.4 24.7 18.7 23.8 18.7M19.7 2.6L15.4 6.9C14.7 7.6 14.7 8.9 15.4 9.6L22.5 16.7C23.2 17.4 24.5 17.4 25.2 16.7L29.5 12.4z"></path></g></g></svg></g></svg></g></svg></g><defs><mask></mask></defs></svg><rect width="395.52" height="59.93681031903358" fill="black" stroke="none" visibility="hidden"></rect></g></mask><linearGradient x1="0" x2="1" y1="0.578" y2="0.595" id="169e72fd-a59a-4c0a-959f-88839874e3f6"><stop stop-color="#6ee2f5" offset="0"></stop><stop stop-color="#6454f0" offset="1"></stop></linearGradient><rect width="395.52" height="59.93681031903358" fill="url(#169e72fd-a59a-4c0a-959f-88839874e3f6)" mask="url(#d336ba58-a726-4d88-b03b-11f1d1dcb996)" data-fill-palette-color="primary"></rect><mask id="ee015839-815f-4572-91c8-f1e4670a0683"><g id="SvgjsG1785"><svg viewBox="0 0 395.52 59.93681031903358" height="59.93681031903358" width="395.52"><g><svg viewBox="0 0 485.97151098946165 73.64376586425341" height="59.93681031903358" width="395.52"><g transform="matrix(1,0,0,1,0,1.296670262443449)"><svg viewBox="0 0 395.52 71.05042533936651" height="71.05042533936651" width="395.52"><g id="SvgjsG1784"><svg viewBox="0 0 395.52 71.05042533936651" height="71.05042533936651" width="395.52" id="SvgjsSvg1783"><g><svg viewBox="0 0 395.52 71.05042533936651" height="71.05042533936651" width="395.52"><g transform="matrix(1,0,0,1,0,0)"><svg width="395.52" viewBox="1.88 -38.35 269.75 48.46" height="71.05042533936651" data-palette-color="url(#169e72fd-a59a-4c0a-959f-88839874e3f6)"></svg></g></svg></g></svg></g></svg></g><g transform="matrix(1,0,0,1,412.2933002124163,0)"><svg viewBox="0 0 73.6782107770454 73.64376586425341" height="73.64376586425341" width="73.6782107770454"><g><svg xmlns="http://www.w3.org/2000/svg" xmlns:xlink="http://www.w3.org/1999/xlink" version="1.1" x="0" y="0" viewBox="0.7607695154586737 0.7749999999999999 30.439230484541326 30.425" enable-background="new 0 0 32 32" xml:space="preserve" height="73.64376586425341" width="73.6782107770454" class="icon-icon-0" data-fill-palette-color="accent" id="SvgjsSvg1782"><g fill="white"><g fill="white"><path fill="white" d="M1.5 31.2C1.3 31.2 1.1 31.1 1 31 0.8 30.8 0.7 30.6 0.8 30.3L4.5 11.2C4.6 10.9 4.8 10.6 5.1 10.6L14.7 9.3C14.9 9.3 15.2 9.3 15.3 9.5L22.5 16.7C22.7 16.9 22.7 17.1 22.7 17.3L21.4 26.9C21.4 27.2 21.1 27.5 20.8 27.5L1.6 31.2zM5.8 12.1L2.4 29.6 19.9 26.2 21.1 17.5 14.4 10.8z"></path></g><g fill="white"><rect x="5.2" y="19.8" transform="matrix(-0.7071 -0.7071 0.7071 -0.7071 -8.3465 48.7211)" fill="white" width="1.5" height="12.6"></rect></g><g fill="white"><path fill="white" d="M12 23.1C11.2 23.1 10.4 22.8 9.8 22.2S8.9 20.9 8.9 20C8.9 19.2 9.2 18.4 9.8 17.8 11 16.6 13 16.6 14.1 17.8 15.3 19 15.3 20.9 14.1 22.1 13.6 22.8 12.8 23.1 12 23.1M12 18.4C11.6 18.4 11.2 18.6 10.9 18.9S10.4 19.6 10.4 20 10.6 20.8 10.9 21.1C11.5 21.7 12.5 21.7 13.1 21.1S13.7 19.5 13.1 18.9C12.8 18.6 12.4 18.4 12 18.4"></path></g><g fill="white"><path fill="white" d="M23.8 18.7C22.9 18.7 22 18.3 21.4 17.7L14.3 10.6C13 9.3 13 7.1 14.3 5.8L19.1 1C19.4 0.7 19.9 0.7 20.2 1L31 11.8C31.1 11.9 31.2 12.1 31.2 12.3S31.1 12.7 31 12.8L26.1 17.7C25.5 18.4 24.7 18.7 23.8 18.7M19.7 2.6L15.4 6.9C14.7 7.6 14.7 8.9 15.4 9.6L22.5 16.7C23.2 17.4 24.5 17.4 25.2 16.7L29.5 12.4z"></path></g></g></svg></g></svg></g></svg></g><defs><mask></mask></defs><mask><g id="SvgjsG1781"><svg viewBox="0 0 395.52 59.93681031903358" height="59.93681031903358" width="395.52"><g><svg viewBox="0 0 485.97151098946165 73.64376586425341" height="59.93681031903358" width="395.52"><g transform="matrix(1,0,0,1,0,1.296670262443449)"><svg viewBox="0 0 395.52 71.05042533936651" height="71.05042533936651" width="395.52"><g id="SvgjsG1780"><svg viewBox="0 0 395.52 71.05042533936651" height="71.05042533936651" width="395.52" id="SvgjsSvg1779"><g><svg viewBox="0 0 395.52 71.05042533936651" height="71.05042533936651" width="395.52"><g transform="matrix(1,0,0,1,0,0)"><svg width="395.52" viewBox="1.88 -38.35 269.75 48.46" height="71.05042533936651" data-palette-color="url(#169e72fd-a59a-4c0a-959f-88839874e3f6)"><path d="M19.6 0.02L15.23 0.02 1.88-35.55 6.69-35.55Q8.06-31.79 9.41-28.04 10.77-24.29 12.13-20.54 13.5-16.8 14.83-13.01 16.16-9.23 17.46-5.42L17.46-5.42Q20.07-13.04 22.81-20.53 25.56-28.03 28.27-35.55L28.27-35.55 33.33-35.55 19.6 0.02ZM44.11 0L39.67 0 39.67-26.42 44.11-26.42 44.11 0ZM41.89-32.47L41.89-32.47Q40.4-32.47 39.6-33.25 38.79-34.03 38.79-35.45L38.79-35.45Q38.79-36.82 39.6-37.59 40.4-38.35 41.89-38.35L41.89-38.35Q43.38-38.35 44.19-37.59 44.99-36.82 44.99-35.45L44.99-35.45Q44.99-34.03 44.19-33.25 43.38-32.47 41.89-32.47ZM60.4 0.49L60.4 0.49Q57.22 0.49 54.5-0.57 51.78-1.64 50.14-3.69L50.14-3.69 52.46-5.93 52.8-5.93Q54.39-4.1 56.46-3.42 58.54-2.73 60.4-2.73L60.4-2.73Q62.93-2.73 64.33-3.91 65.72-5.08 65.72-7.5L65.72-7.5Q65.72-8.35 65.4-9.05 65.08-9.74 64.11-10.36 63.13-10.99 61.1-11.62L61.1-11.62 58.12-12.55Q54.93-13.55 53.39-14.65 51.85-15.75 51.37-17.04 50.9-18.33 50.9-19.9L50.9-19.9Q50.9-23.19 53.47-25.1 56.05-27 60.47-27L60.47-27Q62.62-27 64.3-26.5 65.99-26 67.23-25.13 68.48-24.27 69.26-23.14L69.26-23.14 66.84-21.17 66.6-21.17Q65.69-22.24 64.16-22.95 62.62-23.66 60.49-23.66L60.49-23.66Q58.64-23.66 57.49-23.21 56.34-22.75 55.81-21.9 55.27-21.04 55.27-19.87L55.27-19.87Q55.27-18.53 56.06-17.72 56.86-16.92 59.57-16.06L59.57-16.06 62.5-15.14Q65.67-14.11 67.22-12.94 68.77-11.77 69.27-10.46 69.77-9.16 69.77-7.67L69.77-7.67Q69.77-4.79 68.5-2.99 67.23-1.2 65.11-0.35 62.98 0.49 60.4 0.49ZM80.97 0L76.53 0 76.53-26.42 80.97-26.42 80.97 0ZM78.75-32.47L78.75-32.47Q77.26-32.47 76.46-33.25 75.65-34.03 75.65-35.45L75.65-35.45Q75.65-36.82 76.46-37.59 77.26-38.35 78.75-38.35L78.75-38.35Q80.24-38.35 81.05-37.59 81.85-36.82 81.85-35.45L81.85-35.45Q81.85-34.03 81.05-33.25 80.24-32.47 78.75-32.47ZM99.77 0.49L99.77 0.49Q95.94 0.49 93.26-1.23 90.59-2.95 89.2-6.04 87.81-9.13 87.81-13.23L87.81-13.23Q87.81-17.43 89.17-20.52 90.54-23.61 93.22-25.31 95.89-27 99.77-27L99.77-27Q103.65-27 106.31-25.31 108.97-23.61 110.34-20.52 111.71-17.43 111.71-13.23L111.71-13.23Q111.71-9.13 110.32-6.04 108.93-2.95 106.26-1.23 103.6 0.49 99.77 0.49ZM99.77-2.81L99.77-2.81Q102.36-2.81 103.98-4.16 105.61-5.52 106.37-7.86 107.14-10.21 107.14-13.21L107.14-13.21Q107.14-16.28 106.37-18.64 105.61-21 103.97-22.34 102.33-23.68 99.77-23.68L99.77-23.68Q95.91-23.68 94.14-20.75 92.37-17.82 92.37-13.21L92.37-13.21Q92.37-10.21 93.14-7.86 93.91-5.52 95.55-4.16 97.18-2.81 99.77-2.81ZM123.03 0L118.59 0 118.59-26.42 122.28-26.42 122.74-21.26Q123.96-24.19 126.2-25.6 128.43-27 131.65-27L131.65-27Q136.12-27 138.22-24.13 140.32-21.26 140.32-15.92L140.32-15.92 140.32 0 135.9 0 135.9-16.24Q135.9-18.48 135.44-20.15 134.97-21.83 133.85-22.75 132.73-23.68 130.72-23.68L130.72-23.68Q128.67-23.68 127.22-23 125.77-22.31 124.84-21.11 123.91-19.9 123.47-18.31 123.03-16.72 123.03-14.94L123.03-14.94 123.03 0ZM155.36 0.49L155.36 0.49Q151.57 0.49 149.2-1.42 146.84-3.32 146.84-7.18L146.84-7.18Q146.84-8.94 147.46-10.3 148.08-11.67 149.35-12.61 150.62-13.55 152.62-14.04 154.62-14.53 157.36-14.53L157.36-14.53 163.32-14.53 163.32-17.58Q163.32-20.78 161.87-22.2 160.43-23.63 157.53-23.63L157.53-23.63Q155.65-23.63 153.29-23.03 150.94-22.44 149.06-21.14L149.06-21.14 147.76-24.51Q149.11-25.37 150.73-25.92 152.35-26.46 154.12-26.73 155.89-27 157.65-27L157.65-27Q160.63-27 162.9-26.05 165.17-25.1 166.45-22.95 167.73-20.8 167.73-17.21L167.73-17.21 167.73 0 164.02 0 163.71-3.25Q162.66-2 161.41-1.17 160.17-0.34 158.66 0.07 157.16 0.49 155.36 0.49ZM156.04-2.66L156.04-2.66Q158.38-2.66 160.24-3.64 162.09-4.61 163.32-6.18L163.32-6.18 163.32-11.72 158.16-11.72Q155.48-11.72 153.92-11.21 152.35-10.69 151.71-9.68 151.06-8.67 151.06-7.13L151.06-7.13Q151.06-4.64 152.51-3.65 153.96-2.66 156.04-2.66ZM180.04 0L175.62 0 175.62-26.42 179.21-26.42 179.65-20.92Q181.01-24.19 183.01-25.46 185.02-26.73 187.26-26.73L187.26-26.73Q187.8-26.73 188.26-26.71 188.73-26.68 189.19-26.61L189.19-26.61 188.85-23.1Q188.61-23.1 188.36-23.11 188.12-23.12 187.85-23.12L187.85-23.12Q185.21-23.12 183.48-22.02 181.75-20.92 180.89-19.08 180.04-17.24 180.04-14.99L180.04-14.99 180.04 0ZM216.97-26.42L202.37 10.11 198.56 9.13 202.47-1.07 191.48-26.42 196.12-26.42 204.67-5.93 212.7-26.42 216.97-26.42ZM224.37 0L219.68 0 232.99-35.55 237.82-35.55 251.25 0 246.54 0 242.43-11.06 228.44-11.06 224.37 0ZM235.43-30.96L229.54-14.6 241.33-14.6 235.43-30.96ZM271.63 0.02L257.45 0.02 257.45-2.88 262.18-2.88 262.18-32.67 257.45-32.67 257.45-35.55 271.63-35.55 271.63-32.67 266.94-32.67 266.94-2.88 271.63-2.88 271.63 0.02Z" opacity="1" transform="matrix(1,0,0,1,0,0)" fill="black" class="wordmark-text-0" id="SvgjsPath1778"></path></svg></g></svg></g></svg></g></svg></g><g transform="matrix(1,0,0,1,412.2933002124163,0)"><svg viewBox="0 0 73.6782107770454 73.64376586425341" height="73.64376586425341" width="73.6782107770454"><g><svg xmlns="http://www.w3.org/2000/svg" xmlns:xlink="http://www.w3.org/1999/xlink" version="1.1" x="0" y="0" viewBox="0.7607695154586737 0.7749999999999999 30.439230484541326 30.425" enable-background="new 0 0 32 32" xml:space="preserve" height="73.64376586425341" width="73.6782107770454" class="icon-icon-0" data-fill-palette-color="accent" id="SvgjsSvg1777"><g fill="black"><g fill="black"><path fill="black" d="M1.5 31.2C1.3 31.2 1.1 31.1 1 31 0.8 30.8 0.7 30.6 0.8 30.3L4.5 11.2C4.6 10.9 4.8 10.6 5.1 10.6L14.7 9.3C14.9 9.3 15.2 9.3 15.3 9.5L22.5 16.7C22.7 16.9 22.7 17.1 22.7 17.3L21.4 26.9C21.4 27.2 21.1 27.5 20.8 27.5L1.6 31.2zM5.8 12.1L2.4 29.6 19.9 26.2 21.1 17.5 14.4 10.8z"></path></g><g fill="black"><rect x="5.2" y="19.8" transform="matrix(-0.7071 -0.7071 0.7071 -0.7071 -8.3465 48.7211)" fill="black" width="1.5" height="12.6"></rect></g><g fill="black"><path fill="black" d="M12 23.1C11.2 23.1 10.4 22.8 9.8 22.2S8.9 20.9 8.9 20C8.9 19.2 9.2 18.4 9.8 17.8 11 16.6 13 16.6 14.1 17.8 15.3 19 15.3 20.9 14.1 22.1 13.6 22.8 12.8 23.1 12 23.1M12 18.4C11.6 18.4 11.2 18.6 10.9 18.9S10.4 19.6 10.4 20 10.6 20.8 10.9 21.1C11.5 21.7 12.5 21.7 13.1 21.1S13.7 19.5 13.1 18.9C12.8 18.6 12.4 18.4 12 18.4"></path></g><g fill="black"><path fill="black" d="M23.8 18.7C22.9 18.7 22 18.3 21.4 17.7L14.3 10.6C13 9.3 13 7.1 14.3 5.8L19.1 1C19.4 0.7 19.9 0.7 20.2 1L31 11.8C31.1 11.9 31.2 12.1 31.2 12.3S31.1 12.7 31 12.8L26.1 17.7C25.5 18.4 24.7 18.7 23.8 18.7M19.7 2.6L15.4 6.9C14.7 7.6 14.7 8.9 15.4 9.6L22.5 16.7C23.2 17.4 24.5 17.4 25.2 16.7L29.5 12.4z"></path></g></g></svg></g></svg></g></svg></g><defs><mask></mask></defs></svg><rect width="395.52" height="59.93681031903358" fill="black" stroke="none" visibility="hidden"></rect></g></mask></svg><rect width="395.52" height="59.93681031903358" fill="black" stroke="none" visibility="hidden"></rect></g></mask><linearGradient x1="0" x2="1" y1="0.578" y2="0.595" id="61c7bc9c-e9b8-480f-9323-986cb4b5fd4d"><stop stop-color="#6ee2f5" offset="0"></stop><stop stop-color="#6454f0" offset="1"></stop></linearGradient><rect width="395.52" height="59.93681031903358" fill="url(#61c7bc9c-e9b8-480f-9323-986cb4b5fd4d)" mask="url(#ee015839-815f-4572-91c8-f1e4670a0683)" data-fill-palette-color="accent"></rect></svg><rect width="395.52" height="59.93681031903358" fill="none" stroke="none" visibility="hidden"></rect></g></svg></g></svg>